<svg width="500" height="119" viewBox="0 0 500 119" fill="none" xmlns="http://www.w3.org/2000/svg">
<path d="M186.817 43.6022C186.817 34.4948 183.857 27.4365 177.823 22.5412C171.903 17.5321 164.276 15.0275 154.941 15.0275H121.812V104.167H140.255V72.7461H154.258C164.048 72.7461 171.903 70.2416 177.823 65.3463C183.857 60.3372 186.817 53.0512 186.817 43.6022ZM168.26 44.0576C168.26 51.7989 161.658 55.5558 153.461 55.5558H140.255V32.4456H153.347C161.885 32.4456 168.26 35.9747 168.26 44.0576Z" fill="#354051"/>
<path d="M196.037 59.6539C196.037 72.5182 200.477 83.3333 209.471 92.2131C218.464 101.093 229.28 105.533 242.144 105.533C255.008 105.533 265.937 101.093 274.931 92.0993C284.038 83.1057 288.592 72.0628 288.592 59.1985C288.592 46.4481 284.152 35.633 275.158 26.867C266.279 18.1011 255.464 13.6612 242.599 13.6612C229.735 13.6612 218.806 18.1011 209.699 27.0947C200.591 36.0883 196.037 46.9035 196.037 59.6539ZM222.904 39.7313C228.255 34.2668 234.744 31.5346 242.372 31.5346C249.999 31.5346 256.488 34.2668 261.839 39.7313C267.189 45.1958 269.808 51.7987 269.808 59.5401C269.808 67.2814 267.189 73.8843 261.839 79.4627C256.488 84.9271 249.999 87.6594 242.372 87.6594C234.744 87.6594 228.255 84.9271 222.904 79.4627C217.554 73.8843 214.935 67.2814 214.935 59.5401C214.935 51.7987 217.554 45.1958 222.904 39.7313Z" fill="#354051"/>
<path d="M334.927 104.167L354.394 39.5039H354.622L373.975 104.167H393.898L420.309 15.0275H401.298L383.766 78.7798L364.526 15.0275H344.831L325.592 78.3244L308.629 15.0275H288.934L315.118 104.167H334.927Z" fill="#354051"/>
<path d="M500 103.939L479.85 69.1029C492.031 64.663 498.178 56.0109 498.178 43.0328C498.178 34.0392 495.219 27.0947 489.185 22.1995C483.265 17.3042 475.751 14.7996 466.644 14.7996H431.466V103.939H449.909V71.949H461.066L479.508 103.939H500ZM449.909 32.2177H465.164C473.247 32.2177 479.508 35.5191 479.508 43.3743C479.508 51.1157 473.019 54.8725 465.278 54.8725H449.909V32.2177Z" fill="#354051"/>
<path fill-rule="evenodd" clip-rule="evenodd" d="M36.2948 0.00886623C36.7847 -0.0643612 37.2207 0.325464 37.2207 0.82877V31.6243C37.2207 32.0866 37.5893 32.4613 38.044 32.4613H47.0318C47.4865 32.4613 47.8552 32.0866 47.8552 31.6243V0.82877C47.8552 0.325465 48.2911 -0.0643611 48.781 0.00886642C69.3143 3.07838 85.0758 21.0596 85.0758 42.7826C85.0758 66.3807 66.4759 85.5632 43.3642 86.0107C42.9095 86.0195 42.5379 86.3934 42.5379 86.8556V115.656C42.5379 117.197 41.3084 118.451 39.7937 118.395C26.0443 117.889 13.246 113.592 2.37977 106.503C0.869654 105.518 0 103.797 0 101.973V43.87C0 43.8664 0.00288186 43.8635 0.00643682 43.8635V43.8635C0.0100536 43.8635 0.0129604 43.8605 0.0128722 43.8568C0.00430729 43.4998 0 43.1417 0 42.7826C0 21.0596 15.7615 3.07838 36.2948 0.00886623ZM26.5862 16.1494C26.5862 15.5052 25.9018 15.1057 25.3676 15.4524C23.4244 16.7136 21.6168 18.1883 19.9788 19.8532C17.0163 22.8643 14.6663 26.4391 13.063 30.3733C11.4597 34.3075 10.6345 38.5242 10.6345 42.7826C10.6345 47.041 11.4597 51.2577 13.063 55.1919C14.6663 59.1261 17.0163 62.7009 19.9788 65.712C22.9413 68.7231 26.4583 71.1117 30.329 72.7413C34.1997 74.3709 38.3483 75.2097 42.5379 75.2097C46.7275 75.2097 50.8761 74.3709 54.7468 72.7413C58.6175 71.1117 62.1345 68.7231 65.097 65.712C68.0596 62.7009 70.4095 59.1261 72.0128 55.1919C73.6161 51.2577 74.4413 47.041 74.4413 42.7826C74.4413 38.5242 73.6161 34.3075 72.0128 30.3733C70.4095 26.4391 68.0596 22.8643 65.097 19.8532C63.459 18.1883 61.6514 16.7136 59.7082 15.4524C59.1741 15.1057 58.4896 15.5052 58.4896 16.1494V28.1672C58.4896 28.3711 58.5633 28.5675 58.6938 28.7224C60.1489 30.4497 61.3291 32.4024 62.1879 34.5097C63.2567 37.1326 63.8069 39.9437 63.8069 42.7826C63.8069 45.6215 63.2567 48.4326 62.1879 51.0555C61.119 53.6783 59.5523 56.0614 57.5773 58.0689C55.6023 60.0763 53.2577 61.6687 50.6772 62.7551C48.0967 63.8415 45.331 64.4006 42.5379 64.4006C39.7448 64.4006 36.9791 63.8415 34.3986 62.7551C31.8182 61.6687 29.4735 60.0763 27.4985 58.0689C25.5235 56.0614 23.9568 53.6783 22.888 51.0555C21.8191 48.4326 21.269 45.6215 21.269 42.7826C21.269 39.9437 21.8191 37.1326 22.888 34.5097C23.7468 32.4024 24.9269 30.4497 26.382 28.7224C26.5125 28.5675 26.5862 28.3711 26.5862 28.1672V16.1494Z" fill="#3B8CFF"/>
</svg>
